# xmcd
#
# Track frame offsets:
#	150
#	29961
#	52704
#	71764
#	104640
#	126923
#	146514
#	173228
#	199861
#	218204
#	239276
#
# Disc length: 3427 seconds
#
# Revision: 2
# Processed by: cddbd v1.5.2PL0 Copyright (c) Steve Scherf et al.
# Submitted via: EZCDAudioConverter 8.0.2.1
#
DISCID=ab0d610b
DTITLE=Mai Quốc Huy - Vol 06. Với Các Tiền Bối Nhạc Xưa
DYEAR=2012
DGENRE=Pop
TTITLE0=Mai Quốc Huy, Hương Lan - Chuyện tình Lan và Điệp
TTITLE1=Mai Quốc Huy - LK Duyên phận bẽ bàng, hai bàn tay trắng
TTITLE2=Giao Linh - Tình yêu trả lại trăng sao
TTITLE3=Thanh Tuyền - LK Nỗi buồn hoa phương, Tiễn biệt
TTITLE4=Mai Quốc Huy, Thanh Tuyền - Đừng nói xa nhau
TTITLE5=Phương Dung - Về đâu mái tóc người thương
TTITLE6=Mai Quốc Huy, Phi Nhung - Cho vừa lòng em
TTITLE7=Mai Quốc Huy - LK Túy ca, Xua đi huyền thoại
TTITLE8=Mai Quốc Huy - Em giờ thân gái long đong
TTITLE9=Đàm Vĩnh Hưng - Đợi em trong mơ
TTITLE10=Đàm Vĩnh Hưng - Sao em nỡ vô tình
EXTD=
EXTT0=
EXTT1=
EXTT2=
EXTT3=
EXTT4=
EXTT5=
EXTT6=
EXTT7=
EXTT8=
EXTT9=
EXTT10=
PLAYORDER=
